<?xml version="1.0" encoding="UTF-8"?><svg xmlns="http://www.w3.org/2000/svg" xmlns:xlink="http://www.w3.org/1999/xlink" height="463.0" preserveAspectRatio="xMidYMid meet" version="1.0" viewBox="-3.4 0.1 433.7 463.0" width="433.7" zoomAndPan="magnify"><g id="change1_1"><path d="M246.1,463.1c-4.2-6.8-9.8-13.2-12.5-20.6c-9.2-25.2-17.5-50.7-25.9-76.2c-9-27.4-17.6-55-26.4-82.8 c-0.9,1.6-2.2,3.6-3.2,5.8c-21.4,47.3-42.6,94.7-64.3,141.9c-1.5,3.2-5.9,5.1-8.9,7.5c-1.5-3.5-4.5-7.2-4.1-10.5 c2.8-25.8,5.8-51.6,9.6-77.3c3.4-23.3,8-46.4,12.3-70.9c-3.6,1.7-6.1,2.9-8.6,4.1c-30.9,15.3-61.6,30.7-92.6,45.8 c-6.4,3.1-14.6,7.7-19.8,0c-5.1-7.6,2.9-12.6,7.7-17.4c3.7-3.7,8-6.9,12.3-9.8c31.4-20.9,62.8-41.6,94.2-62.4c1.4-0.9,2.8-2,4.5-3.3 c-5.6-11.1-11.3-21.9-16.4-32.9c-14.7-31.8-28.9-63.8-43.9-95.4c-3.7-7.8-9.5-14.6-14.4-21.8c-2.6-3.8-6.8-8.1-1.5-12.1 c5-3.8,8.1,1.1,11.6,4.3c32,30.1,56.1,66.2,79.6,102.9c0.3,0.4,0.9,0.6,2.8,1.9c2.7-18.5,5.8-36.3,7.8-54.1 c4.3-37.4,8-74.9,12.5-112.3c0.7-6,4.6-11.6,6.9-17.4c1.2,0,2.3,0,3.5,0c2.4,6.2,5.7,12.2,7.1,18.6c7.3,32.7,14.1,65.6,21,98.4 c3.1,14.6,6,29.2,9.2,45c3.1-3.3,5.1-5.4,7-7.6C246.1,117.3,278.9,80,312.1,43c2.7-3,7.7-4,11.6-5.9c0.4,4.6,0.9,9.1,1.3,13.7 c0.1,0.8-0.6,1.6-1,2.4c-8.4,18.6-16.1,37.5-25.2,55.8c-11.9,23.7-24.9,46.7-37.6,70.4c2.3-0.2,4.8-0.3,7.3-0.7 c20.4-3.7,40.7-7.6,61.1-11.3c27.9-5.1,55.9-10.3,84.3-5.9c5.7,0.9,11,4.5,16.4,6.9c0,0.6,0,1.2,0,1.8c-4.4,3.9-8.3,9.2-13.5,11.5 c-17.9,7.8-36,15.3-54.4,21.6c-37,12.7-74.2,24.5-111.3,36.7c-3.7,1.2-7,2-6.7,7.3c2.1,36.4,3.8,72.9,6,109.3 c1.7,27.7,4.4,55.2,5.8,82.9c0.4,8.5-0.2,17.7-8.5,23.6C247.3,463.1,246.7,463.1,246.1,463.1z" fill="#FBE8D7"/></g></svg>